{"title":"King.Of.The.Wind.1990.DVDRip.XVID.Une-CM8","uid":6811862,"size":1779964082,"categoryP":"video","categoryS":"movies","magnet":"?xt=urn:btih:e0a9137f1f77fecf5e2d8b2374a36d08610e9bd1&amp;dn=King.Of.The.Wind.1990.DVDRip.XVID.Une-CM8&amp;tr=udp%3A%2F%2Ftracker.openbittorrent.com%3A80&amp;tr=udp%3A%2F%2Fopen.demonii.com%3A1337&amp;tr=udp%3A%2F%2Ftracker.coppersurfer.tk%3A6969&amp;tr=udp%3A%2F%2Fexodus.desync.com%3A6969","seeders":0,"leechers":1,"uploader":"sceneline","files":5,"time":1321061610,"description":"- &lt;a href=&quot;\nhttp://www.Speed.Cd&quot; rel=&quot;nofollow&quot; target=&quot;_NEW&quot;&gt;\nhttp://www.Speed.Cd&lt;/a&gt;      fast  and The Hottest Private Tracker on the net\n\n   signup is open now\n\nPlease Seed back to make the speed Faster!!!\n\n------------------nfo--------------------------\n-[IMG]http://img833.imageshack.us/img833/9205/windyking.png[/IMG]\n\n\n[color=blue][size=5][b]King.Of.The.Wind.1990.DVDRip.XVID.Une-CM8[/b][/size][/color]\n\n\n[b]CM8 Doing It Right The First Time :D\n\nAs requested Mr w0lf\n\nSource: DVDR Thx Rumpelstiltskin\n\nBig Thx to Mr Set :D\n\nVideo: 672x448 @bitrate 2098 2pass\nAudio: English AC3 2.0 Stereo \nSample: yes included[/b]\n\n\n[url]http://www.imdb.com/title/tt1928124/[/url]\n\n\n\nGeneral\nComplete name                    : King Of The Wind\\King Of The Wind UnE-CM8.avi\nFormat                           : AVI\nFormat/Info                      : Audio Video Interleave\nFile size                        : 1.64 GiB\nDuration                         : 1h 42mn\nOverall bit rate                 : 2 299 Kbps\nWriting library                  : VirtualDub build 30091/release\n\nVideo\nID                               : 0\nFormat                           : MPEG-4 Visual\nFormat profile                   : Advanced Simple@L5\nFormat settings, BVOP            : 2\nFormat settings, QPel            : No\nFormat settings, GMC             : No warppoints\nFormat settings, Matrix          : Default (H.263)\nCodec ID                         : XVID\nCodec ID/Hint                    : XviD\nDuration                         : 1h 42mn\nBit rate                         : 2 098 Kbps\nWidth                            : 672 pixels\nHeight                           : 448 pixels\nDisplay aspect ratio             : 3:2\nFrame rate                       : 23.976 fps\nColor space                      : YUV\nChroma subsampling               : 4:2:0\nBit depth                        : 8 bits\nScan type                        : Progressive\nCompression mode                 : Lossy\nBits/(Pixel*Frame)               : 0.291\nStream size                      : 1.50 GiB (91%)\nWriting library                  : XviD 1.2.1 (UTC 2008-12-04)\n\nAudio\nID                               : 1\nFormat                           : AC-3\nFormat/Info                      : Audio Coding 3\nMode extension                   : CM (complete main)\nCodec ID                         : 2000\nDuration                         : 1h 42mn\nBit rate mode                    : Constant\nBit rate                         : 192 Kbps\nChannel(s)                       : 2 channels\nChannel positions                : Front: L R\nSampling rate                    : 48.0 KHz\nBit depth                        : 16 bits\nCompression mode                 : Lossy\nStream size                      : 140 MiB (8%)\nAlignment                        : Split accross interleaves\nInterleave, duration             : 42 ms (1.00 video frame)\nInterleave, preload duration     : 500 ms\n\n\n\nPlot:\n\nIn 1727, an Arab colt is born with the signs of the wheat ear and the white \nspot on his heel: evil and good. And thus begins the life of Sham. He is a gift \nto the King of France, through a series of adventures with his faithful stable boy, \nAgba, he becomes the Godolphin Arabian, the founder of one of the greatest thoroughbred racing lines of all time. \n\n\nCast:\n\nRichard Harris\t... \tKing George II\nGlenda Jackson\t... \tQueen Caroline\nFrank Finlay\t... \tEdward Coke\nJenny Agutter\t... \tHannah Coke\nNigel Hawthorne\t... \tAchmet\n\n\n\n[img]http://img191.imageshack.us/img191/5923/vlcsnap2011111210h14m43.png[/img]\n[img]http://img14.imageshack.us/img14/4595/vlcsnap2011111210h14m40.png[/img]\n[img]http://img405.imageshack.us/img405/3971/vlcsnap2011111210h14m34.png[/img]\n[img]http://img72.imageshack.us/img72/1223/vlcsnap2011111210h13m14.png[/img]\n[img]http://img51.imageshack.us/img51/8071/vlcsnap2011111210h13m10.png[/img]\n[img]http://img155.imageshack.us/img155/8921/vlcsnap2011111210h12m33.png[/img]\n\n\n\n\n\nGreetz\n\nViSiON,SPK,SiC,SANTi,3LT0N,YanKeeS,MAGNET,THC,T0XiC,LKRG,FANTASIA-PLAY,FANTASIA-M,FLAWL3SS,\nWBZ,BHRG,NOVA,D2U,Vik,Rapeseed,SAFC,goldadvance,MEMORY100,KaN1vE,Unevano,Pinnz,Wayne\nMr Hive,and most P2P groups\nGreat Work Guys :D\n\nLOOKING FOR ANYTHING YOU WANT TO LOOK AND SOUND BETTER\n\n&lt;a class=&quot;__cf_email__&quot; href=&quot;/cdn-cgi/l/email-protection&quot; data-cfemail=&quot;77343a4f371f02041f1a161e1b5914181a&quot;&gt;[email&amp;#160;protected]&lt;/a&gt;&lt;script cf-hash='f9e31' type=&quot;text/javascript&quot;&gt;\n/* &lt;![CDATA[ */!function(){try{var t=&quot;currentScript&quot;in document?document.currentScript:function(){for(var t=document.getElementsByTagName(&quot;script&quot;),e=t.length;e--;)if(t[e].getAttribute(&quot;cf-hash&quot;))return t[e]}();if(t&amp;&amp;t.previousSibling){var e,r,n,i,c=t.previousSibling,a=c.getAttribute(&quot;data-cfemail&quot;);if(a){for(e=&quot;&quot;,r=parseInt(a.substr(0,2),16),n=2;a.length-n;n+=2)i=parseInt(a.substr(n,2),16)^r,e+=String.fromCharCode(i);e=document.createTextNode(e),c.parentNode.replaceChild(e,c)}}}catch(u){}}();/* ]]&gt; */&lt;/script&gt;","torrent":{"xt":"urn:btih:e0a9137f1f77fecf5e2d8b2374a36d08610e9bd1","amp;dn":"King.Of.The.Wind.1990.DVDRip.XVID.Une-CM8","amp;tr":["udp%3A%2F%2Ftracker.openbittorrent.com%3A80","udp%3A%2F%2Fopen.demonii.com%3A1337","udp%3A%2F%2Ftracker.coppersurfer.tk%3A6969","udp%3A%2F%2Fexodus.desync.com%3A6969"],"infoHash":"e0a9137f1f77fecf5e2d8b2374a36d08610e9bd1","infoHashBuffer":{"type":"Buffer","data":[224,169,19,127,31,119,254,207,94,45,139,35,116,163,109,8,97,14,155,209]},"announce":[],"urlList":[]}}